<?xml version="1.0"?><svg xmlns="http://www.w3.org/2000/svg"  viewBox="0 0 30 30" width="90px" height="90px">    <path d="M28,15c0-1.864-1.032-3.471-2.545-4.331c0.462-1.677,0.055-3.543-1.263-4.862c-0.976-0.976-2.256-1.464-3.536-1.464 c-0.448,0-0.891,0.082-1.326,0.202C18.471,3.032,16.864,2,15,2s-3.471,1.032-4.331,2.545c-0.435-0.12-0.878-0.202-1.326-0.202 c-1.28,0-2.559,0.488-3.536,1.464c-1.318,1.318-1.724,3.184-1.263,4.862C3.032,11.529,2,13.136,2,15s1.032,3.471,2.545,4.331 c-0.461,1.677-0.055,3.543,1.263,4.862c0.976,0.976,2.256,1.464,3.536,1.464c0.448,0,0.891-0.082,1.326-0.202 C11.529,26.968,13.136,28,15,28s3.471-1.032,4.331-2.545c0.435,0.12,0.878,0.202,1.326,0.202c1.28,0,2.559-0.488,3.536-1.464 c1.318-1.318,1.724-3.184,1.263-4.862C26.968,18.471,28,16.864,28,15z M20.657,6.093c0.868,0,1.684,0.338,2.298,0.952 s0.952,1.43,0.952,2.298c0,0.253-0.037,0.499-0.093,0.739C23.548,10.038,23.279,10,23,10h-3V7c0-0.279-0.038-0.548-0.082-0.814 C20.158,6.13,20.404,6.093,20.657,6.093z M19.657,11.785c0.114-0.012,0.225-0.035,0.343-0.035h2.846l-2.013,2.013 c-0.082,0.082-0.177,0.146-0.266,0.218c-0.647-0.288-1.337-0.445-2.032-0.445h0C19.027,13.044,19.404,12.445,19.657,11.785z M15,3.75c1.164,0,2.179,0.62,2.753,1.542c-0.219,0.157-0.435,0.319-0.631,0.516L15,7.929l-2.121-2.121 c-0.196-0.196-0.413-0.359-0.631-0.516C12.821,4.37,13.836,3.75,15,3.75z M17,15c0,1.105-0.895,2-2,2s-2-0.895-2-2 c0-1.105,0.895-2,2-2S17,13.895,17,15z M11.75,7.154l2.013,2.013c0.082,0.082,0.146,0.177,0.218,0.266 c-0.288,0.647-0.445,1.337-0.445,2.032c-0.491-0.491-1.09-0.868-1.751-1.122C11.772,10.229,11.75,10.117,11.75,10V7.154z M7.045,7.045c0.614-0.614,1.43-0.952,2.298-0.952c0.253,0,0.499,0.037,0.739,0.093C10.038,6.452,10,6.721,10,7v3H7 c-0.279,0-0.548,0.038-0.814,0.082C6.13,9.842,6.093,9.596,6.093,9.343C6.093,8.475,6.431,7.659,7.045,7.045z M5.292,17.753 C4.37,17.179,3.75,16.164,3.75,15s0.62-2.179,1.542-2.753c0.157,0.219,0.319,0.435,0.516,0.631L7.929,15l-2.121,2.121 C5.611,17.318,5.449,17.534,5.292,17.753z M9.343,23.907c-0.868,0-1.684-0.338-2.298-0.952c-0.614-0.614-0.952-1.43-0.952-2.298 c0-0.253,0.037-0.499,0.093-0.739C6.452,19.962,6.721,20,7,20h3v3c0,0.279,0.038,0.548,0.082,0.814 C9.842,23.87,9.596,23.907,9.343,23.907z M10.343,18.215C10.229,18.228,10.117,18.25,10,18.25H7.154l2.013-2.013 c0.082-0.082,0.177-0.146,0.266-0.219c0.647,0.288,1.337,0.446,2.032,0.446C10.973,16.956,10.596,17.555,10.343,18.215z M9.432,13.981c-0.089-0.072-0.184-0.136-0.266-0.218L7.154,11.75H10c0.117,0,0.229,0.022,0.343,0.035 c0.253,0.661,0.63,1.26,1.122,1.751C10.769,13.536,10.079,13.693,9.432,13.981z M11.75,20c0-0.117,0.022-0.229,0.035-0.343 c0.661-0.253,1.259-0.63,1.751-1.122c0,0.695,0.157,1.386,0.446,2.032c-0.072,0.089-0.136,0.184-0.219,0.266l-2.013,2.013V20z M15,26.25c-1.164,0-2.179-0.62-2.753-1.542c0.219-0.157,0.435-0.319,0.631-0.516L15,22.071l2.121,2.121 c0.196,0.196,0.413,0.359,0.631,0.516C17.179,25.63,16.164,26.25,15,26.25z M18.25,22.846l-2.013-2.013 c-0.082-0.082-0.146-0.177-0.218-0.266c0.288-0.647,0.445-1.337,0.445-2.032c0.491,0.491,1.09,0.868,1.751,1.122 c0.012,0.114,0.035,0.225,0.035,0.343V22.846z M18.25,10c0,0.117-0.022,0.229-0.035,0.343c-0.661,0.253-1.259,0.63-1.751,1.122 c0-0.695-0.157-1.386-0.445-2.032c0.072-0.089,0.136-0.183,0.218-0.266l2.013-2.013V10z M18.536,16.464L18.536,16.464 c0.695,0,1.386-0.157,2.032-0.445c0.089,0.072,0.184,0.136,0.266,0.218l2.013,2.013H20c-0.117,0-0.229-0.022-0.343-0.035 C19.404,17.555,19.027,16.956,18.536,16.464z M22.955,22.955c-0.614,0.614-1.43,0.952-2.298,0.952c-0.253,0-0.499-0.037-0.739-0.093 C19.962,23.548,20,23.279,20,23v-3h3c0.279,0,0.548-0.038,0.814-0.082c0.056,0.24,0.093,0.486,0.093,0.739 C23.907,21.525,23.569,22.341,22.955,22.955z M24.708,17.753c-0.157-0.219-0.319-0.435-0.516-0.631L22.071,15l2.121-2.121 c0.196-0.196,0.359-0.413,0.516-0.631C25.63,12.821,26.25,13.836,26.25,15S25.63,17.179,24.708,17.753z"/></svg>